<?xml version="1.0" encoding="utf-8"?>
<!-- Generator: Adobe Illustrator 16.0.0, SVG Export Plug-In . SVG Version: 6.00 Build 0)  -->
<!DOCTYPE svg PUBLIC "-//W3C//DTD SVG 1.1//EN" "http://www.w3.org/Graphics/SVG/1.1/DTD/svg11.dtd">
<svg version="1.1" id="Layer_1" xmlns="http://www.w3.org/2000/svg" xmlns:xlink="http://www.w3.org/1999/xlink"  xml:space="preserve">
<g>
	<defs>
		<rect id="SVGID_1_" width="1460.998" height="39"/>
	</defs>
	<use xlink:href="#SVGID_1_"  overflow="visible" fill="#E6E6E5"/>
	<clipPath id="SVGID_2_">
		<use xlink:href="#SVGID_1_"  overflow="visible"/>
	</clipPath>
</g>
<g>
	<defs>
		<polygon id="SVGID_3_" points="0,0.001 1460.998,0.001 1460.998,20 0,20 0,0.001 		"/>
	</defs>
	<use xlink:href="#SVGID_3_"  overflow="visible" fill-rule="evenodd" clip-rule="evenodd" fill="#CDCCCC"/>
	<clipPath id="SVGID_4_">
		<use xlink:href="#SVGID_3_"  overflow="visible"/>
	</clipPath>
</g>
<g>
	<defs>
		<path id="SVGID_5_" d="M11.5,6c2.485,0,4.499,2.016,4.499,4.499c0,2.486-2.014,4.502-4.499,4.502
			c-2.486,0-4.502-2.016-4.502-4.502C6.998,8.016,9.014,6,11.5,6L11.5,6z"/>
	</defs>
	<use xlink:href="#SVGID_5_"  overflow="visible" fill-rule="evenodd" clip-rule="evenodd" fill="#C62845"/>
	<clipPath id="SVGID_6_">
		<use xlink:href="#SVGID_5_"  overflow="visible"/>
	</clipPath>
</g>
<g>
	<defs>
		<path id="SVGID_7_" d="M24.5,6c2.486,0,4.5,2.016,4.5,4.499c0,2.486-2.014,4.502-4.5,4.502c-2.485,0-4.502-2.016-4.502-4.502
			C19.998,8.016,22.014,6,24.5,6L24.5,6z"/>
	</defs>
	<use xlink:href="#SVGID_7_"  overflow="visible" fill-rule="evenodd" clip-rule="evenodd" fill="#B19832"/>
	<clipPath id="SVGID_8_">
		<use xlink:href="#SVGID_7_"  overflow="visible"/>
	</clipPath>
</g>
<g>
	<defs>
		<path id="SVGID_9_" d="M38.498,6C40.984,6,43,8.016,43,10.499c0,2.486-2.016,4.502-4.502,4.502c-2.485,0-4.499-2.016-4.499-4.502
			C33.999,8.016,36.013,6,38.498,6L38.498,6z"/>
	</defs>
	<use xlink:href="#SVGID_9_"  overflow="visible" fill-rule="evenodd" clip-rule="evenodd" fill="#3AB44A"/>
	<clipPath id="SVGID_10_">
		<use xlink:href="#SVGID_9_"  overflow="visible"/>
	</clipPath>
</g>
<g>
	<defs>
		<path id="SVGID_11_" d="M65.185,6h73.646c2.512,0,4.903,1.993,5.349,4.497l3.739,20.955c0.54,3.037-1.319,5.549-4.164,5.549
			H60.263c-2.845,0-4.704-2.512-4.164-5.549l3.739-20.955C60.284,7.993,62.675,6,65.185,6L65.185,6z"/>
	</defs>
	<use xlink:href="#SVGID_11_"  overflow="visible" fill-rule="evenodd" clip-rule="evenodd" fill="#E6E6E5"/>
	<clipPath id="SVGID_12_">
		<use xlink:href="#SVGID_11_"  overflow="visible"/>
	</clipPath>
</g>
</svg>
