<?xml version="1.0" encoding="utf-8"?>
<!-- Generator: Adobe Illustrator 16.0.0, SVG Export Plug-In . SVG Version: 6.00 Build 0)  -->
<!DOCTYPE svg PUBLIC "-//W3C//DTD SVG 1.1//EN" "http://www.w3.org/Graphics/SVG/1.1/DTD/svg11.dtd">
<svg version="1.1" id="Layer_1" xmlns="http://www.w3.org/2000/svg" xmlns:xlink="http://www.w3.org/1999/xlink" x="0px" y="0px"
	 width="840px" height="609px" viewBox="0 0 840 609" enable-background="new 0 0 840 609" xml:space="preserve">
<rect fill="#2F353E" stroke="#000000" stroke-miterlimit="10" width="840" height="609"/>
<g>
	<path fill="#FFFFFF" d="M180.304,320.518c0-0.814,0.388-1.567,0.794-2.263c0.407-0.695,0.882-1.313,1.424-1.855
		c0.542-0.542,1.085-1.018,1.627-1.424c0.542-0.407,0.949-0.729,1.221-0.967c1.898-1.627,3.44-2.982,4.627-4.067
		c1.186-1.085,2.203-2.076,3.051-2.976c0.847-0.898,1.618-1.805,2.313-2.72c0.695-0.914,1.517-1.999,2.466-3.255
		c0.949-1.253,2.102-2.787,3.458-4.601c1.356-1.813,3.119-4.076,5.289-6.789c0.44-0.609,0.932-1.203,1.474-1.778
		c0.542-0.577,1.145-1.094,1.805-1.553c0.661-0.457,1.39-0.83,2.187-1.118c0.796-0.288,1.687-0.433,2.669-0.433
		c1.627,0,2.881,0.179,3.763,0.534c0.881,0.356,1.525,0.788,1.932,1.297s0.645,1.042,0.712,1.602
		c0.068,0.56,0.102,1.043,0.102,1.449c0,0.813-0.322,1.713-0.966,2.695c-0.644,0.983-1.356,1.933-2.136,2.848
		s-1.517,1.755-2.212,2.517c-0.695,0.763-1.094,1.331-1.195,1.703c0,1.052,0.076,2.009,0.229,2.874
		c0.153,0.864,0.356,1.711,0.61,2.541c0.254,0.832,0.517,1.713,0.788,2.645c0.271,0.933,0.534,2.009,0.789,3.229
		c0.254,1.22,0.457,2.628,0.61,4.222c0.153,1.593,0.229,3.474,0.229,5.644c1.221-0.814,2.535-1.552,3.941-2.212
		c1.407-0.661,2.873-1.348,4.398-2.059c1.526-0.713,3.094-1.501,4.704-2.364c1.61-0.866,3.229-1.908,4.856-3.129l0.051,11.392
		c-2.102,1.627-4.534,3.152-7.297,4.576s-5.661,2.679-8.695,3.764s-6.102,1.939-9.204,2.566c-3.102,0.628-6.043,0.94-8.823,0.94
		c-2,0-3.865-0.186-5.593-0.558c-1.729-0.374-3.246-0.959-4.551-1.756c-1.305-0.795-2.365-1.838-3.178-3.126
		c-0.813-1.289-1.305-2.848-1.475-4.679c0,0-2.833,1.349-4.967,0.262C179.996,323.051,180.304,320.518,180.304,320.518z
		 M191.878,320.518c0.407,0,0.855,0.255,1.348,0.762c0.491,0.51,1.059,1.069,1.703,1.679c0.644,0.61,1.39,1.171,2.238,1.678
		c0.847,0.51,1.813,0.764,2.898,0.764c1.322,0,2.416-0.221,3.28-0.661c0.865-0.441,1.551-1.025,2.059-1.754
		c0.509-0.729,0.865-1.576,1.068-2.542c0.203-0.967,0.305-1.975,0.305-3.026c0-0.914-0.06-1.849-0.178-2.796
		c-0.119-0.95-0.271-1.857-0.458-2.722c-0.187-0.863-0.39-1.678-0.61-2.439c-0.22-0.764-0.415-1.417-0.584-1.959L191.878,320.518z"
		/>
	<path fill="#FFFFFF" d="M246.694,333.536c-3.119,0-5.856-0.578-8.212-1.729c-2.355-1.153-4.331-2.696-5.924-4.627
		c-1.593-1.933-2.797-4.171-3.61-6.713s-1.22-5.188-1.22-7.933c0-1.966,0.203-4.017,0.61-6.152s1.009-4.229,1.805-6.28
		c0.797-2.05,1.78-4.007,2.949-5.872c1.17-1.864,2.526-3.5,4.068-4.907c1.542-1.406,3.263-2.525,5.161-3.356
		s3.983-1.246,6.254-1.246c1.933,0,3.721,0.297,5.365,0.891c1.644,0.593,3.051,1.415,4.221,2.466
		c1.169,1.051,2.085,2.297,2.746,3.737c0.661,1.441,0.992,2.992,0.992,4.653c0,1.152-0.152,2.288-0.458,3.406
		c-0.306,1.118-0.754,2.128-1.348,3.025c-0.593,0.898-1.313,1.62-2.161,2.161c-0.848,0.543-1.797,0.813-2.848,0.813
		c-1.593,0-2.636-0.423-3.127-1.27c-0.492-0.848-0.737-2.017-0.737-3.509c0-0.61,0.025-1.254,0.076-1.933
		c0.051-0.678,0.076-1.288,0.076-1.83c0-0.813-0.085-1.491-0.254-2.034c-0.169-0.542-0.542-0.813-1.119-0.813
		c-1.39,0-2.576,0.331-3.56,0.991c-0.983,0.662-1.822,1.525-2.517,2.594c-0.695,1.067-1.246,2.271-1.653,3.609
		c-0.406,1.34-0.729,2.67-0.966,3.991c-0.237,1.323-0.39,2.586-0.458,3.79c-0.068,1.202-0.102,2.212-0.102,3.024
		c0,1.22,0.11,2.492,0.331,3.814c0.22,1.322,0.635,2.533,1.246,3.636c0.61,1.101,1.44,2.017,2.492,2.745
		c1.051,0.729,2.407,1.094,4.068,1.094c1.627,0,3.424-0.5,5.39-1.501c1.966-0.999,3.941-2.263,5.924-3.788
		c1.983-1.525,3.873-3.204,5.67-5.034c1.796-1.829,3.339-3.559,4.627-5.186l3.509,5.897c-2.543,3.627-5.289,6.866-8.238,9.713
		c-1.255,1.22-2.619,2.407-4.094,3.561c-1.475,1.151-3.017,2.177-4.627,3.075c-1.61,0.898-3.289,1.627-5.034,2.188
		C250.263,333.255,248.491,333.536,246.694,333.536z"/>
	<path fill="#FFFFFF" d="M285.95,301.908c1.39-1.831,2.95-3.797,4.678-5.899c1.729-2.102,3.526-4.059,5.39-5.872
		c1.864-1.814,3.721-3.323,5.568-4.526c1.848-1.203,3.585-1.806,5.212-1.806c0.407,0,0.865,0.076,1.374,0.229
		c0.508,0.152,0.991,0.432,1.449,0.839c0.458,0.406,0.839,0.974,1.145,1.703c0.305,0.729,0.458,1.67,0.458,2.823
		c0,2.305-0.322,4.55-0.967,6.737c-0.644,2.186-1.347,4.372-2.11,6.56c-0.763,2.186-1.458,4.414-2.085,6.686
		c-0.626,2.271-0.941,4.645-0.941,7.12c0,1.354,0.204,2.439,0.611,3.252c0.407,0.814,0.932,1.222,1.577,1.222
		c0.813,0,1.678-0.17,2.593-0.509c0.916-0.339,1.831-0.779,2.746-1.321c0.916-0.543,1.814-1.162,2.695-1.855
		c0.881-0.695,1.711-1.417,2.491-2.163c1.865-1.728,3.695-3.695,5.493-5.898l0.863,13.527c-0.61,0.474-1.381,1.067-2.313,1.778
		c-0.932,0.713-1.966,1.468-3.102,2.263c-1.136,0.797-2.365,1.603-3.687,2.415c-1.322,0.815-2.652,1.534-3.992,2.163
		c-1.339,0.627-2.678,1.143-4.017,1.55c-1.339,0.407-2.618,0.611-3.839,0.611c-1.864,0-3.483-0.501-4.856-1.501
		c-1.373-1.001-2.5-2.271-3.381-3.813c-0.881-1.543-1.543-3.23-1.983-5.062c-0.441-1.83-0.661-3.558-0.661-5.186
		c0-1.084,0.144-2.298,0.433-3.637c0.288-1.338,0.643-2.686,1.067-4.043c0.424-1.354,0.899-2.677,1.424-3.965
		c0.526-1.289,1.017-2.44,1.475-3.458c0.458-1.016,0.856-1.848,1.195-2.49c0.339-0.645,0.559-1.019,0.661-1.119l-1.068-0.153
		c-0.576,0.373-1.55,1.323-2.924,2.849c-1.373,1.525-2.923,3.448-4.652,5.771c-1.729,2.321-3.517,4.931-5.365,7.831
		c-1.848,2.898-3.518,5.89-5.009,8.974c-0.746,1.525-1.356,2.856-1.831,3.992s-0.941,2.067-1.398,2.798
		c-0.458,0.729-0.958,1.279-1.5,1.651c-0.542,0.372-1.237,0.561-2.084,0.561c-1.119,0-2-0.323-2.644-0.968
		c-0.644-0.644-1.136-1.499-1.475-2.567c-0.338-1.067-0.559-2.279-0.661-3.636c-0.102-1.355-0.153-2.746-0.153-4.169
		c0-2.271,0.025-5.247,0.077-8.925c0.051-3.678,0.212-7.754,0.483-12.229s0.661-9.187,1.169-14.137
		c0.509-4.949,1.229-9.839,2.161-14.67c0.933-4.831,2.102-9.441,3.508-13.831c1.407-4.39,3.119-8.254,5.136-11.594
		c2.017-3.339,4.382-5.991,7.093-7.957c2.712-1.968,5.831-2.95,9.356-2.95c1.831,0,3.331,0.271,4.5,0.813
		c1.17,0.542,2.102,1.305,2.797,2.288c0.694,0.983,1.178,2.162,1.449,3.534c0.271,1.373,0.407,2.907,0.407,4.603
		c0,2.508-0.356,5.288-1.068,8.339s-1.653,6.221-2.822,9.509c-1.17,3.289-2.5,6.619-3.992,9.992
		c-1.492,3.373-3.018,6.645-4.577,9.814c-1.561,3.17-3.094,6.161-4.603,8.975c-1.508,2.814-2.839,5.288-3.991,7.424L285.95,301.908z
		 M290.477,270.482c2-5.187,3.45-9.561,4.347-13.119c0.898-3.561,1.348-6.188,1.348-7.882c0-2.576-0.339-3.864-1.017-3.864
		c-0.882,0-2.187,1.439-3.917,4.321c-1.729,2.882-3.763,7.068-6.102,12.56c-0.576,1.865-1.11,3.797-1.602,5.798
		c-0.491,2-0.932,3.991-1.322,5.975s-0.746,3.933-1.068,5.848s-0.602,3.737-0.839,5.467c-0.577,4.033-1.017,7.983-1.322,11.848
		c0.916-2.136,1.915-4.458,3-6.966c1.085-2.509,2.153-4.993,3.204-7.45c1.051-2.458,2.042-4.78,2.976-6.967
		C289.095,273.864,289.866,272.008,290.477,270.482z"/>
	<path fill="#FFFFFF" d="M351.75,295.45c0.984,1.966,1.721,4.042,2.212,6.228c0.492,2.188,0.737,4.281,0.737,6.28
		s-0.221,4.017-0.662,6.051s-1.076,4.001-1.906,5.898c-0.831,1.899-1.848,3.679-3.051,5.34c-1.205,1.66-2.577,3.102-4.119,4.321
		c-1.542,1.221-3.229,2.188-5.06,2.898c-1.831,0.713-3.779,1.069-5.847,1.069c-2.983,0-5.535-0.653-7.654-1.959
		c-2.119-1.305-3.855-3.007-5.212-5.11c-1.355-2.102-2.347-4.475-2.974-7.118c-0.628-2.646-0.941-5.322-0.941-8.034
		c0-3.729,0.559-7.212,1.678-10.449c1.119-3.238,2.72-6.051,4.805-8.441c2.085-2.39,4.636-4.271,7.653-5.644
		c3.017-1.374,6.407-2.061,10.17-2.061c3.221,0,6.238,0.501,9.051,1.5c2.814,1.001,5.451,2.34,7.908,4.018s4.746,3.603,6.864,5.771
		c2.119,2.17,4.093,4.407,5.924,6.712l-0.965,7.17c-0.917-1.22-2.153-2.544-3.713-3.967c-1.559-1.423-3.212-2.813-4.957-4.169
		c-1.747-1.356-3.467-2.637-5.162-3.839c-1.695-1.204-3.153-2.212-4.374-3.026L351.75,295.45z M336.038,323.772
		c1.152,0,2.271-0.585,3.355-1.754c1.085-1.171,2.034-2.646,2.848-4.425c0.813-1.78,1.466-3.746,1.958-5.898
		c0.491-2.152,0.737-4.211,0.737-6.178c0-1.56-0.12-3.009-0.356-4.347c-0.237-1.34-0.593-2.501-1.067-3.483
		c-0.475-0.984-1.085-1.764-1.831-2.339c-0.746-0.577-1.644-0.865-2.694-0.865c-1.39,0-2.712,0.594-3.967,1.779
		c-1.253,1.187-2.356,2.704-3.305,4.552s-1.695,3.89-2.237,6.127c-0.542,2.236-0.814,4.389-0.814,6.458
		c0,1.424,0.136,2.762,0.407,4.017c0.271,1.253,0.695,2.347,1.271,3.279c0.577,0.932,1.339,1.678,2.289,2.238
		C333.58,323.493,334.715,323.772,336.038,323.772z"/>
	<path fill="#FFFFFF" d="M396.142,295.45c0.984,1.966,1.721,4.042,2.212,6.228c0.492,2.188,0.737,4.281,0.737,6.28
		s-0.22,4.017-0.661,6.051c-0.441,2.034-1.076,4.001-1.907,5.898c-0.831,1.899-1.848,3.679-3.051,5.34
		c-1.203,1.66-2.576,3.102-4.119,4.321c-1.542,1.221-3.229,2.188-5.059,2.898c-1.831,0.713-3.78,1.069-5.848,1.069
		c-2.983,0-5.534-0.653-7.653-1.959c-2.119-1.305-3.856-3.007-5.212-5.11c-1.357-2.102-2.348-4.475-2.975-7.118
		c-0.627-2.646-0.941-5.322-0.941-8.034c0-3.729,0.56-7.212,1.678-10.449c1.119-3.238,2.721-6.051,4.807-8.441
		c2.083-2.39,4.635-4.271,7.652-5.644c3.018-1.374,6.407-2.061,10.17-2.061c3.221,0,6.237,0.501,9.051,1.5
		c2.814,1.001,5.45,2.34,7.907,4.018s4.746,3.603,6.864,5.771c2.119,2.17,4.094,4.407,5.925,6.712l-0.967,7.17
		c-0.915-1.22-2.153-2.544-3.711-3.967c-1.56-1.423-3.212-2.813-4.958-4.169c-1.746-1.356-3.466-2.637-5.162-3.839
		c-1.694-1.204-3.153-2.212-4.373-3.026L396.142,295.45z M380.429,323.772c1.153,0,2.271-0.585,3.356-1.754
		c1.085-1.171,2.035-2.646,2.848-4.425c0.813-1.78,1.467-3.746,1.958-5.898c0.492-2.152,0.737-4.211,0.737-6.178
		c0-1.56-0.119-3.009-0.356-4.347c-0.237-1.34-0.593-2.501-1.068-3.483c-0.475-0.984-1.085-1.764-1.83-2.339
		c-0.746-0.577-1.645-0.865-2.695-0.865c-1.39,0-2.712,0.594-3.966,1.779c-1.254,1.187-2.356,2.704-3.306,4.552
		c-0.949,1.848-1.695,3.89-2.237,6.127c-0.542,2.236-0.813,4.389-0.813,6.458c0,1.424,0.135,2.762,0.407,4.017
		c0.271,1.253,0.695,2.347,1.271,3.279c0.576,0.932,1.339,1.678,2.288,2.238C377.971,323.493,379.107,323.772,380.429,323.772z"/>
	<path fill="#FFFFFF" d="M420.652,333.536c-1.831,0-3.535-0.806-5.111-2.416c-1.577-1.611-2.95-3.772-4.119-6.484
		s-2.084-5.855-2.746-9.432c-0.662-3.577-0.992-7.33-0.992-11.263c0-3.017,0.22-6.297,0.661-9.84
		c0.441-3.542,1.085-7.195,1.932-10.958c0.848-3.763,1.857-7.543,3.026-11.339c1.169-3.797,2.491-7.441,3.966-10.934
		c1.475-3.491,3.076-6.754,4.806-9.788c1.729-3.034,3.542-5.679,5.439-7.933c1.899-2.254,3.884-4.026,5.951-5.313
		c2.068-1.289,4.169-1.933,6.306-1.933c1.457,0,2.661,0.331,3.608,0.991c0.95,0.661,1.696,1.534,2.238,2.619
		c0.543,1.085,0.924,2.313,1.145,3.687c0.22,1.373,0.33,2.771,0.33,4.195c0,3.187-0.365,6.432-1.094,9.737s-1.711,6.628-2.948,9.968
		c-1.238,3.338-2.67,6.686-4.298,10.042c-1.627,3.355-3.321,6.687-5.085,9.992c-1.763,3.306-3.534,6.56-5.313,9.764
		c-1.78,3.202-3.45,6.33-5.009,9.38c-0.17,0.339-0.348,0.78-0.533,1.322c-0.187,0.542-0.365,1.127-0.534,1.756
		c-0.17,0.626-0.34,1.295-0.509,2.008c-0.17,0.711-0.306,1.406-0.407,2.084v0.712c0,0.882,0.093,1.738,0.279,2.568
		c0.188,0.83,0.416,1.576,0.688,2.236c0.271,0.662,0.559,1.187,0.864,1.576c0.306,0.392,0.593,0.587,0.865,0.587
		c0.643,0,1.382-0.137,2.212-0.407c0.83-0.272,1.712-0.636,2.644-1.094c0.933-0.458,1.891-0.983,2.874-1.576
		c0.982-0.594,1.931-1.195,2.847-1.805c2.135-1.424,21.037-16.932,21.898-20.119l2.001,6.338c-0.902,2.416-6.119,9.94-11.935,16.328
		c-3.898,4.285-8.849,8.315-10.032,8.995c-1.288,0.712-2.619,1.416-3.991,2.109c-1.375,0.695-2.755,1.315-4.145,1.857
		c-1.391,0.543-2.746,0.975-4.069,1.296C423.041,333.374,421.804,333.536,420.652,333.536z M420.703,292.856
		c1.525-2.712,3.145-5.763,4.855-9.153c1.712-3.39,3.33-6.882,4.857-10.475c1.525-3.594,2.848-7.179,3.966-10.756
		c1.118-3.575,1.83-6.906,2.136-9.991c0-0.983-0.026-1.822-0.077-2.518c-0.051-0.694-0.212-1.042-0.482-1.042
		c-0.983,0-2.044,0.636-3.18,1.906c-1.134,1.272-2.27,2.992-3.405,5.162s-2.221,4.695-3.254,7.576
		c-1.034,2.882-1.96,5.949-2.772,9.204c-0.814,3.254-1.459,6.602-1.933,10.042C420.94,286.254,420.703,289.602,420.703,292.856z"/>
	<path fill="#FFFFFF" d="M495.554,322.146c-3.255,1.897-6.153,3.56-8.694,4.983c-2.544,1.424-4.807,2.61-6.79,3.558
		c-1.982,0.95-3.746,1.663-5.287,2.137c-1.543,0.474-2.942,0.713-4.196,0.713c-2.576,0-4.848-0.779-6.814-2.34
		c-1.966-1.56-3.608-3.806-4.933-6.737c-1.321-2.934-2.313-6.483-2.974-10.654c-0.661-4.169-0.991-8.863-0.991-14.084
		c0-2.033,0.084-4.203,0.254-6.509c0.169-2.305,0.406-4.593,0.711-6.864c-1.016-0.137-1.804-0.263-2.364-0.382
		c-0.559-0.119-1.151-0.237-1.78-0.355c-0.626-0.119-1.423-0.246-2.389-0.382s-2.364-0.305-4.195-0.509
		c-0.813-0.102-1.441-0.296-1.882-0.584c-0.44-0.289-0.762-0.628-0.966-1.018c-0.203-0.39-0.322-0.797-0.355-1.22
		c-0.034-0.424-0.052-0.788-0.052-1.094c0-0.678,0.332-1.194,0.992-1.551c0.662-0.356,1.508-0.619,2.542-0.788
		c1.034-0.17,2.17-0.263,3.407-0.28c1.237-0.017,2.424-0.008,3.56,0.025c1.136,0.034,2.152,0.06,3.051,0.076
		c0.899,0.018,1.517-0.008,1.855-0.076c0.916-4.576,2.077-9.009,3.484-13.297c1.406-4.289,2.982-8.103,4.729-11.441
		c1.745-3.339,3.652-6.018,5.721-8.034s4.235-3.025,6.507-3.025c1.459,0,2.79,0.406,3.992,1.22c1.204,0.813,2.229,1.898,3.077,3.255
		s1.499,2.941,1.957,4.755c0.459,1.813,0.687,3.703,0.687,5.67c0,1.661-0.236,3.415-0.711,5.263
		c-0.476,1.847-1.12,3.729-1.933,5.645c-0.814,1.915-1.771,3.855-2.873,5.822c-1.102,1.966-2.263,3.915-3.483,5.848
		c0.306,0.034,0.813,0.06,1.525,0.076c0.711,0.017,1.534,0.042,2.467,0.076c0.932,0.034,1.939,0.076,3.024,0.127
		s2.137,0.094,3.152,0.128c1.019,0.033,1.968,0.067,2.85,0.102c0.881,0.033,1.609,0.067,2.186,0.101
		c0.678,0.034,1.169,0.373,1.475,1.018c0.305,0.645,0.458,1.458,0.458,2.44c0,1.187-0.339,2.153-1.017,2.898
		c-0.68,0.746-1.424,1.119-2.238,1.119h-19.525c-0.984,1.356-1.975,2.687-2.976,3.992c-1,1.305-1.924,2.482-2.771,3.534
		c-0.135,2.101-0.255,4.169-0.356,6.203c-0.033,0.882-0.066,1.788-0.102,2.72c-0.033,0.933-0.066,1.855-0.101,2.771
		c-0.034,0.916-0.06,1.798-0.077,2.646s-0.024,1.627-0.024,2.338c0,1.831,0.169,3.374,0.508,4.627
		c0.339,1.256,0.83,2.28,1.475,3.078c0.644,0.797,1.432,1.372,2.364,1.729c0.932,0.356,1.975,0.534,3.128,0.534
		c0.711,0,1.601-0.171,2.67-0.51c1.067-0.339,2.236-0.804,3.508-1.397c1.272-0.593,2.61-1.297,4.018-2.111
		c1.406-0.813,2.797-1.703,4.169-2.668c1.373-0.968,2.688-1.983,3.941-3.051c1.255-1.069,2.391-2.161,3.407-3.281V322.146z
		 M479.281,257.77c0-0.372-0.025-0.788-0.076-1.246c-0.051-0.457-0.161-0.89-0.33-1.296c-0.17-0.407-0.434-0.746-0.788-1.018
		c-0.356-0.271-0.856-0.407-1.501-0.407c-0.881,0-1.771,0.78-2.67,2.34c-0.896,1.56-1.762,3.551-2.593,5.975
		c-0.83,2.424-1.609,5.094-2.34,8.01c-0.729,2.914-1.397,5.745-2.008,8.491c0.509,0.067,1.019,0.127,1.525,0.179
		c0.509,0.051,1.034,0.109,1.576,0.177c1.019-1.729,2.077-3.601,3.179-5.618s2.093-4,2.975-5.95
		c0.881-1.949,1.611-3.771,2.187-5.466C478.993,260.244,479.281,258.854,479.281,257.77z"/>
	<path fill="#FFFFFF" d="M525.199,295.45c0.982,1.966,1.72,4.042,2.211,6.228c0.492,2.188,0.737,4.281,0.737,6.28
		s-0.219,4.017-0.659,6.051c-0.441,2.034-1.078,4.001-1.908,5.898c-0.831,1.899-1.847,3.679-3.051,5.34
		c-1.203,1.66-2.576,3.102-4.119,4.321c-1.543,1.221-3.229,2.188-5.059,2.898c-1.831,0.713-3.781,1.069-5.849,1.069
		c-2.982,0-5.533-0.653-7.652-1.959c-2.118-1.305-3.856-3.007-5.212-5.11c-1.356-2.102-2.349-4.475-2.976-7.118
		c-0.626-2.646-0.94-5.322-0.94-8.034c0-3.729,0.56-7.212,1.678-10.449c1.118-3.238,2.722-6.051,4.805-8.441
		c2.086-2.39,4.637-4.271,7.654-5.644c3.017-1.374,6.406-2.061,10.17-2.061c3.22,0,6.237,0.501,9.051,1.5
		c2.814,1.001,5.449,2.34,7.907,4.018c2.457,1.678,4.746,3.603,6.865,5.771c2.118,2.17,4.094,4.407,5.924,6.712l-0.967,7.17
		c-0.915-1.22-2.152-2.544-3.711-3.967c-1.561-1.423-3.212-2.813-4.959-4.169c-1.745-1.356-3.465-2.637-5.161-3.839
		c-1.695-1.204-3.152-2.212-4.372-3.026L525.199,295.45z M509.486,323.772c1.153,0,2.271-0.585,3.356-1.754
		c1.085-1.171,2.034-2.646,2.847-4.425c0.814-1.78,1.466-3.746,1.958-5.898c0.491-2.152,0.737-4.211,0.737-6.178
		c0-1.56-0.118-3.009-0.355-4.347c-0.238-1.34-0.593-2.501-1.068-3.483c-0.475-0.984-1.085-1.764-1.831-2.339
		c-0.744-0.577-1.644-0.865-2.694-0.865c-1.391,0-2.713,0.594-3.966,1.779c-1.255,1.187-2.355,2.704-3.306,4.552
		c-0.949,1.848-1.695,3.89-2.238,6.127c-0.542,2.236-0.813,4.389-0.813,6.458c0,1.424,0.136,2.762,0.407,4.017
		c0.271,1.253,0.693,2.347,1.271,3.279c0.575,0.932,1.339,1.678,2.287,2.238C507.028,323.493,508.164,323.772,509.486,323.772z"/>
	<path fill="#FFFFFF" d="M553.723,324.483c3.425,0,6.544-0.339,9.357-1.017c2.813-0.678,5.365-1.594,7.652-2.745
		c2.289-1.153,4.356-2.5,6.203-4.043c1.849-1.543,3.518-3.194,5.009-4.957l0.56,11.644c-1.085,1.321-2.397,2.602-3.94,3.839
		c-1.544,1.237-3.229,2.322-5.06,3.255c-1.831,0.932-3.755,1.678-5.771,2.238c-2.018,0.558-4.01,0.839-5.976,0.839
		c-0.237,0-0.534-0.035-0.89-0.102c-0.355-0.069-0.975-0.187-1.855-0.356c-0.882-0.171-2.144-0.398-3.788-0.687
		c-1.646-0.288-3.873-0.636-6.687-1.043v0.915c0,6.17-0.518,11.771-1.552,16.806s-2.416,9.332-4.145,12.892
		c-1.728,3.559-3.711,6.306-5.949,8.236c-2.236,1.933-4.559,2.898-6.966,2.898c-1.933,0-3.542-0.474-4.83-1.424
		c-1.289-0.947-2.314-2.228-3.078-3.839c-0.762-1.609-1.304-3.491-1.627-5.644c-0.321-2.152-0.482-4.433-0.482-6.839
		c0-1.391,0.221-2.958,0.661-4.705c0.441-1.744,1.034-3.575,1.778-5.49c0.746-1.915,1.586-3.866,2.518-5.85
		c0.932-1.981,1.891-3.905,2.874-5.77c2.305-4.34,4.933-8.814,7.882-13.426c0.372-2.644,0.754-5.355,1.145-8.136
		c0.39-2.779,0.881-5.474,1.474-8.084c0.594-2.61,1.34-5.085,2.237-7.424c0.898-2.339,2.052-4.373,3.458-6.103
		c1.407-1.729,3.093-3.102,5.059-4.119c1.968-1.017,4.34-1.525,7.12-1.525c2.067,0,4,0.28,5.796,0.84
		c1.798,0.559,3.374,1.466,4.729,2.721c1.356,1.254,2.424,2.872,3.203,4.856c0.779,1.982,1.17,4.414,1.17,7.297
		c0,2.305-0.339,4.533-1.017,6.686c-0.678,2.151-1.738,4.211-3.178,6.179c-1.44,1.966-3.271,3.804-5.492,5.518
		c-2.221,1.711-4.855,3.245-7.906,4.601L553.723,324.483z M529.621,355.959c0,0.272,0.06,0.713,0.177,1.324
		c0.119,0.609,0.314,1.22,0.585,1.829c0.271,0.61,0.628,1.153,1.068,1.627c0.441,0.476,0.983,0.713,1.628,0.713
		c0.575,0,1.05-0.314,1.423-0.94c0.373-0.627,0.678-1.466,0.915-2.518s0.407-2.236,0.509-3.561c0.103-1.321,0.187-2.677,0.255-4.066
		c0.066-1.391,0.108-2.746,0.126-4.067c0.018-1.324,0.06-2.511,0.127-3.561c0.102-1.831,0.179-3.383,0.229-4.653
		s0.093-2.329,0.127-3.178c0.035-0.949,0.068-1.746,0.102-2.391c-0.645,1.12-1.271,2.416-1.882,3.891
		c-0.609,1.474-1.187,3.009-1.729,4.603c-0.54,1.594-1.033,3.186-1.475,4.779c-0.44,1.595-0.821,3.076-1.143,4.45
		c-0.322,1.373-0.577,2.56-0.764,3.559C529.714,354.799,529.621,355.519,529.621,355.959z M547.316,319.349
		c2.033-1.018,3.789-2.153,5.264-3.407c1.474-1.255,2.745-2.593,3.813-4.018c1.068-1.424,1.941-2.898,2.619-4.424
		s1.22-3.084,1.627-4.678c0.17-0.746,0.279-1.618,0.33-2.619c0.051-0.999-0.051-1.939-0.304-2.821
		c-0.255-0.881-0.695-1.635-1.323-2.263c-0.627-0.628-1.5-0.941-2.617-0.941c-1.256,0-2.358,0.348-3.306,1.043
		c-0.95,0.694-1.771,1.636-2.467,2.822s-1.271,2.593-1.729,4.221c-0.459,1.627-0.831,3.372-1.118,5.236
		c-0.29,1.864-0.492,3.806-0.611,5.822C547.375,315.34,547.316,317.348,547.316,319.349z"/>
	<path fill="#FFFFFF" d="M607.318,322.705c-1.22,1.118-2.736,2.313-4.55,3.585c-1.813,1.271-3.772,2.439-5.874,3.509
		c-2.101,1.067-4.246,1.957-6.432,2.668c-2.188,0.713-4.264,1.069-6.229,1.069c-1.763,0-3.246-0.246-4.45-0.737
		c-1.203-0.492-2.177-1.178-2.923-2.061c-0.746-0.882-1.279-1.958-1.603-3.229c-0.321-1.271-0.482-2.67-0.482-4.195
		c0-2.135,0.245-4.619,0.736-7.45c0.492-2.83,1.094-5.763,1.805-8.796c0.713-3.034,1.468-6.06,2.263-9.077
		c0.798-3.016,1.501-5.796,2.112-8.339c0.236-0.881,0.711-1.635,1.424-2.263c0.711-0.627,1.517-1.136,2.415-1.525
		c0.897-0.391,1.831-0.678,2.796-0.864c0.966-0.187,1.84-0.28,2.619-0.28c1.424,0,2.39,0.263,2.898,0.788
		c0.509,0.526,0.762,1.23,0.762,2.111c0,0.746-0.168,1.822-0.507,3.229c-0.339,1.407-0.764,3-1.271,4.779
		c-0.509,1.78-1.051,3.695-1.627,5.746c-0.577,2.052-1.12,4.101-1.627,6.153c-0.51,2.05-0.933,4.05-1.272,6
		c-0.339,1.948-0.508,3.703-0.508,5.263c0,1.525,0.169,2.736,0.508,3.635c0.34,0.899,1.033,1.349,2.085,1.349
		c1.22,0,2.577-0.425,4.069-1.271c1.49-0.848,3-1.872,4.525-3.077c1.525-1.202,3.016-2.448,4.475-3.737
		c1.457-1.288,2.745-2.389,3.863-3.305V322.705z M584.59,270.431c0-0.779,0.168-1.66,0.507-2.644
		c0.341-0.982,0.89-1.907,1.653-2.771c0.762-0.864,1.78-1.593,3.051-2.187c1.271-0.593,2.856-0.89,4.754-0.89
		c1.187,0,2.307,0.136,3.356,0.407c1.052,0.271,1.966,0.687,2.747,1.245c0.779,0.56,1.397,1.297,1.855,2.212
		c0.458,0.916,0.687,2,0.687,3.255c0,1.152-0.187,2.271-0.56,3.356s-0.966,2.05-1.78,2.897c-0.813,0.849-1.838,1.534-3.075,2.06
		c-1.238,0.525-2.722,0.788-4.45,0.788c-2.982,0-5.186-0.703-6.611-2.11C585.301,274.644,584.59,272.771,584.59,270.431z"/>
	<path fill="#FFFFFF" d="M656.898,321.078c-0.779,1.085-1.822,2.355-3.129,3.813c-1.304,1.459-2.771,2.848-4.396,4.171
		c-1.628,1.321-3.374,2.439-5.238,3.354c-1.864,0.916-3.729,1.374-5.595,1.374c-2.236,0-4.101-0.721-5.593-2.162
		c-1.492-1.439-2.78-3.534-3.865-6.279c-0.813,0.95-1.813,1.915-3,2.898c-1.187,0.982-2.482,1.873-3.891,2.67
		c-1.405,0.797-2.871,1.448-4.396,1.957s-3.051,0.764-4.576,0.764c-1.628,0-3.213-0.332-4.756-0.992
		c-1.543-0.661-2.907-1.611-4.094-2.847c-1.187-1.237-2.135-2.747-2.848-4.527c-0.712-1.778-1.066-3.788-1.066-6.024
		c0-2.544,0.354-5.154,1.066-7.831c0.713-2.679,1.696-5.298,2.949-7.856c1.256-2.56,2.738-4.975,4.45-7.246
		c1.712-2.271,3.585-4.253,5.619-5.949c2.033-1.694,4.178-3.042,6.432-4.042s4.552-1.5,6.89-1.5c0.78,0,1.391,0.152,1.831,0.457
		c0.44,0.306,0.806,0.653,1.094,1.043s0.567,0.771,0.839,1.145c0.271,0.372,0.609,0.644,1.017,0.813
		c0.407,0.169,0.821,0.279,1.247,0.331c0.423,0.051,0.856,0.075,1.297,0.075c0.372,0,0.753-0.009,1.143-0.024
		c0.39-0.018,0.772-0.026,1.145-0.026c0.509,0,0.983,0.051,1.424,0.152s0.83,0.322,1.169,0.662c0.341,0.339,0.603,0.813,0.788,1.424
		c0.188,0.608,0.281,1.44,0.281,2.49c0,1.628-0.171,3.433-0.51,5.415c-0.338,1.984-0.711,4.018-1.118,6.103
		c-0.407,2.084-0.779,4.17-1.118,6.253c-0.34,2.086-0.509,4.061-0.509,5.925c0,1.594,0.144,2.841,0.432,3.737
		c0.288,0.898,0.908,1.349,1.855,1.349c0.713,0,1.459-0.178,2.238-0.534s1.567-0.823,2.364-1.398
		c0.797-0.576,1.594-1.229,2.39-1.958c0.797-0.729,1.552-1.483,2.263-2.263c1.662-1.831,3.011-3.553,3.011-3.553
		s3.168-3.896,6.052-0.948C661.979,315.063,656.898,321.078,656.898,321.078z M613.471,317.06c0,0.848,0.061,1.67,0.18,2.467
		c0.117,0.797,0.33,1.508,0.635,2.136c0.306,0.627,0.711,1.136,1.221,1.525c0.509,0.39,1.153,0.585,1.933,0.585
		c1.253,0,2.389-0.543,3.407-1.627c1.017-1.085,1.897-2.392,2.644-3.917s1.348-3.102,1.805-4.729
		c0.458-1.628,0.755-2.982,0.89-4.067l3.102-14.949c-1.389,0-2.745,0.348-4.066,1.042c-1.322,0.695-2.568,1.636-3.738,2.822
		c-1.169,1.187-2.246,2.542-3.229,4.068c-0.983,1.525-1.829,3.127-2.542,4.805s-1.262,3.365-1.651,5.059
		C613.666,313.976,613.471,315.567,613.471,317.06z"/>
</g>
</svg>
